<mxfile host="app.diagrams.net" modified="2024-07-16T09:24:31.930Z" agent="Mozilla/5.0 (Windows NT 10.0; Win64; x64) AppleWebKit/537.36 (KHTML, like Gecko) Chrome/126.0.0.0 Safari/537.36" etag="MwOBOniBUNDU2mJijz12" version="24.6.5" type="device">
  <diagram name="Page-1" id="y3rlCwLbRGiM5NopbpWb">
    <mxGraphModel dx="794" dy="452" grid="0" gridSize="10" guides="1" tooltips="1" connect="1" arrows="1" fold="1" page="1" pageScale="1" pageWidth="850" pageHeight="1100" background="#000000" math="0" shadow="0">
      <root>
        <mxCell id="0" />
        <mxCell id="1" parent="0" />
        <mxCell id="4gb1G_93XU-V0cN32dXZ-4" value="" style="edgeStyle=orthogonalEdgeStyle;rounded=0;orthogonalLoop=1;jettySize=auto;html=1;fontFamily=Helvetica;fontSize=12;fontColor=#FFFFFF;labelBackgroundColor=#000000;strokeColor=#FFFFFF;" edge="1" parent="1" source="4gb1G_93XU-V0cN32dXZ-1" target="4gb1G_93XU-V0cN32dXZ-3">
          <mxGeometry relative="1" as="geometry" />
        </mxCell>
        <mxCell id="4gb1G_93XU-V0cN32dXZ-1" value="Login" style="rounded=0;whiteSpace=wrap;html=1;strokeColor=#FFFFFF;fillColor=none;fontColor=#FFFFFF;labelBackgroundColor=#000000;" vertex="1" parent="1">
          <mxGeometry x="399.62" y="52" width="69" height="33" as="geometry" />
        </mxCell>
        <mxCell id="4gb1G_93XU-V0cN32dXZ-3" value="Membership" style="whiteSpace=wrap;html=1;fillColor=none;strokeColor=#FFFFFF;fontColor=#FFFFFF;rounded=0;labelBackgroundColor=#000000;" vertex="1" parent="1">
          <mxGeometry x="384.24" y="136" width="99.75" height="39" as="geometry" />
        </mxCell>
        <mxCell id="4gb1G_93XU-V0cN32dXZ-42" value="" style="edgeStyle=orthogonalEdgeStyle;shape=connector;rounded=0;orthogonalLoop=1;jettySize=auto;html=1;strokeColor=#FFFFFF;align=center;verticalAlign=middle;fontFamily=Helvetica;fontSize=12;fontColor=#FFFFFF;labelBackgroundColor=#000000;endArrow=classic;entryX=0.306;entryY=0;entryDx=0;entryDy=0;exitX=0.5;exitY=1;exitDx=0;exitDy=0;entryPerimeter=0;" edge="1" parent="1" source="4gb1G_93XU-V0cN32dXZ-7" target="4gb1G_93XU-V0cN32dXZ-15">
          <mxGeometry relative="1" as="geometry">
            <Array as="points">
              <mxPoint x="242" y="386" />
            </Array>
          </mxGeometry>
        </mxCell>
        <mxCell id="4gb1G_93XU-V0cN32dXZ-7" value="Personal Training" style="whiteSpace=wrap;html=1;fillColor=none;strokeColor=#FFFFFF;fontColor=#FFFFFF;rounded=0;labelBackgroundColor=#000000;" vertex="1" parent="1">
          <mxGeometry x="197" y="259" width="89" height="40" as="geometry" />
        </mxCell>
        <mxCell id="4gb1G_93XU-V0cN32dXZ-14" value="" style="edgeStyle=orthogonalEdgeStyle;shape=connector;rounded=0;orthogonalLoop=1;jettySize=auto;html=1;strokeColor=#FFFFFF;align=center;verticalAlign=middle;fontFamily=Helvetica;fontSize=12;fontColor=#FFFFFF;labelBackgroundColor=#000000;endArrow=classic;entryX=0.5;entryY=0;entryDx=0;entryDy=0;" edge="1" parent="1" source="4gb1G_93XU-V0cN32dXZ-9" target="4gb1G_93XU-V0cN32dXZ-13">
          <mxGeometry relative="1" as="geometry">
            <mxPoint x="133" y="330" as="targetPoint" />
          </mxGeometry>
        </mxCell>
        <mxCell id="4gb1G_93XU-V0cN32dXZ-9" value="&lt;span style=&quot;font-family: &amp;quot;Helvetica Neue&amp;quot;, Helvetica, Arial, sans-serif; font-size: 11px; text-align: start; background-color: rgb(0, 0, 0);&quot;&gt;Specialist Classes &amp;amp; Workshops&lt;/span&gt;" style="whiteSpace=wrap;html=1;fillColor=none;strokeColor=#FFFFFF;fontColor=#FFFFFF;rounded=0;labelBackgroundColor=#000000;fontSize=11;" vertex="1" parent="1">
          <mxGeometry x="83.75" y="257" width="99" height="42" as="geometry" />
        </mxCell>
        <mxCell id="4gb1G_93XU-V0cN32dXZ-13" value="&lt;span style=&quot;font-family: Teko, sans-serif; background-color: rgb(0, 0, 0);&quot;&gt;&lt;font style=&quot;font-size: 12px;&quot;&gt;Olympic Weightlifting/ Workshops&lt;/font&gt;&lt;/span&gt;" style="whiteSpace=wrap;html=1;fillColor=none;strokeColor=#FFFFFF;fontColor=#FFFFFF;rounded=0;labelBackgroundColor=#000000;" vertex="1" parent="1">
          <mxGeometry x="81" y="333" width="90.5" height="43.75" as="geometry" />
        </mxCell>
        <mxCell id="4gb1G_93XU-V0cN32dXZ-52" value="" style="edgeStyle=orthogonalEdgeStyle;shape=connector;rounded=0;orthogonalLoop=1;jettySize=auto;html=1;strokeColor=#FFFFFF;align=center;verticalAlign=middle;fontFamily=Helvetica;fontSize=12;fontColor=#FFFFFF;labelBackgroundColor=#000000;endArrow=classic;" edge="1" parent="1" source="4gb1G_93XU-V0cN32dXZ-15" target="4gb1G_93XU-V0cN32dXZ-17">
          <mxGeometry relative="1" as="geometry" />
        </mxCell>
        <mxCell id="4gb1G_93XU-V0cN32dXZ-15" value="Payment" style="whiteSpace=wrap;html=1;fillColor=none;strokeColor=#FFFFFF;fontColor=#FFFFFF;rounded=0;labelBackgroundColor=#000000;" vertex="1" parent="1">
          <mxGeometry x="72" y="412" width="556" height="41.38" as="geometry" />
        </mxCell>
        <mxCell id="4gb1G_93XU-V0cN32dXZ-17" value="Service Application Database" style="rounded=0;whiteSpace=wrap;html=1;fillColor=none;strokeColor=#FFFFFF;fontColor=#FFFFFF;labelBackgroundColor=#000000;" vertex="1" parent="1">
          <mxGeometry x="186" y="488" width="328" height="42.93" as="geometry" />
        </mxCell>
        <mxCell id="4gb1G_93XU-V0cN32dXZ-34" value="" style="endArrow=classic;html=1;rounded=0;strokeColor=#FFFFFF;align=center;verticalAlign=middle;fontFamily=Helvetica;fontSize=12;fontColor=#FFFFFF;labelBackgroundColor=#000000;edgeStyle=orthogonalEdgeStyle;exitX=0.5;exitY=1;exitDx=0;exitDy=0;" edge="1" parent="1" source="4gb1G_93XU-V0cN32dXZ-3" target="4gb1G_93XU-V0cN32dXZ-7">
          <mxGeometry width="50" height="50" relative="1" as="geometry">
            <mxPoint x="433.53999999999996" y="215.33000000000004" as="sourcePoint" />
            <mxPoint x="313" y="253" as="targetPoint" />
            <Array as="points">
              <mxPoint x="434" y="219" />
              <mxPoint x="245" y="219" />
            </Array>
          </mxGeometry>
        </mxCell>
        <mxCell id="4gb1G_93XU-V0cN32dXZ-41" value="" style="endArrow=classic;html=1;rounded=0;strokeColor=#FFFFFF;align=center;verticalAlign=middle;fontFamily=Helvetica;fontSize=12;fontColor=#FFFFFF;labelBackgroundColor=#000000;edgeStyle=orthogonalEdgeStyle;exitX=0.5;exitY=1;exitDx=0;exitDy=0;entryX=0.5;entryY=0;entryDx=0;entryDy=0;" edge="1" parent="1" source="4gb1G_93XU-V0cN32dXZ-3" target="4gb1G_93XU-V0cN32dXZ-9">
          <mxGeometry width="50" height="50" relative="1" as="geometry">
            <mxPoint x="383" y="268" as="sourcePoint" />
            <mxPoint x="433" y="218" as="targetPoint" />
            <Array as="points">
              <mxPoint x="434" y="219" />
              <mxPoint x="133" y="219" />
            </Array>
          </mxGeometry>
        </mxCell>
        <mxCell id="4gb1G_93XU-V0cN32dXZ-44" value="" style="endArrow=classic;html=1;rounded=0;strokeColor=#FFFFFF;align=center;verticalAlign=middle;fontFamily=Helvetica;fontSize=12;fontColor=#FFFFFF;labelBackgroundColor=#000000;edgeStyle=orthogonalEdgeStyle;exitX=0.5;exitY=1;exitDx=0;exitDy=0;entryX=0.083;entryY=0;entryDx=0;entryDy=0;entryPerimeter=0;" edge="1" parent="1" source="4gb1G_93XU-V0cN32dXZ-13" target="4gb1G_93XU-V0cN32dXZ-15">
          <mxGeometry width="50" height="50" relative="1" as="geometry">
            <mxPoint x="383" y="401" as="sourcePoint" />
            <mxPoint x="433" y="351" as="targetPoint" />
          </mxGeometry>
        </mxCell>
        <mxCell id="4gb1G_93XU-V0cN32dXZ-50" value="" style="edgeStyle=orthogonalEdgeStyle;shape=connector;rounded=0;orthogonalLoop=1;jettySize=auto;html=1;strokeColor=#FFFFFF;align=center;verticalAlign=middle;fontFamily=Helvetica;fontSize=12;fontColor=#FFFFFF;labelBackgroundColor=#000000;endArrow=classic;" edge="1" parent="1" source="4gb1G_93XU-V0cN32dXZ-45">
          <mxGeometry relative="1" as="geometry">
            <mxPoint x="361" y="412" as="targetPoint" />
            <Array as="points">
              <mxPoint x="361" y="412" />
            </Array>
          </mxGeometry>
        </mxCell>
        <mxCell id="4gb1G_93XU-V0cN32dXZ-45" value="Massage" style="rounded=0;whiteSpace=wrap;html=1;strokeColor=#FFFFFF;align=center;verticalAlign=middle;fontFamily=Helvetica;fontSize=12;fontColor=#FFFFFF;labelBackgroundColor=#000000;fillColor=none;" vertex="1" parent="1">
          <mxGeometry x="317" y="258" width="87" height="38" as="geometry" />
        </mxCell>
        <mxCell id="4gb1G_93XU-V0cN32dXZ-49" value="" style="endArrow=classic;html=1;rounded=0;strokeColor=#FFFFFF;align=center;verticalAlign=middle;fontFamily=Helvetica;fontSize=12;fontColor=#FFFFFF;labelBackgroundColor=#000000;edgeStyle=orthogonalEdgeStyle;exitX=0.5;exitY=1;exitDx=0;exitDy=0;entryX=0.5;entryY=0;entryDx=0;entryDy=0;" edge="1" parent="1" source="4gb1G_93XU-V0cN32dXZ-3" target="4gb1G_93XU-V0cN32dXZ-45">
          <mxGeometry width="50" height="50" relative="1" as="geometry">
            <mxPoint x="381" y="197" as="sourcePoint" />
            <mxPoint x="624" y="246" as="targetPoint" />
            <Array as="points">
              <mxPoint x="434" y="219" />
              <mxPoint x="361" y="219" />
            </Array>
          </mxGeometry>
        </mxCell>
        <mxCell id="4gb1G_93XU-V0cN32dXZ-54" value="" style="edgeStyle=orthogonalEdgeStyle;shape=connector;rounded=0;orthogonalLoop=1;jettySize=auto;html=1;strokeColor=#FFFFFF;align=center;verticalAlign=middle;fontFamily=Helvetica;fontSize=12;fontColor=#FFFFFF;labelBackgroundColor=#000000;endArrow=classic;exitX=0.5;exitY=1;exitDx=0;exitDy=0;" edge="1" parent="1" source="4gb1G_93XU-V0cN32dXZ-53">
          <mxGeometry relative="1" as="geometry">
            <mxPoint x="464.61" y="296" as="sourcePoint" />
            <mxPoint x="469" y="412" as="targetPoint" />
            <Array as="points">
              <mxPoint x="469" y="296" />
            </Array>
          </mxGeometry>
        </mxCell>
        <mxCell id="4gb1G_93XU-V0cN32dXZ-53" value="Nutrition Support" style="rounded=0;whiteSpace=wrap;html=1;strokeColor=#FFFFFF;align=center;verticalAlign=middle;fontFamily=Helvetica;fontSize=12;fontColor=#FFFFFF;labelBackgroundColor=#000000;fillColor=none;" vertex="1" parent="1">
          <mxGeometry x="432" y="257" width="89" height="39" as="geometry" />
        </mxCell>
        <mxCell id="4gb1G_93XU-V0cN32dXZ-55" value="" style="endArrow=classic;html=1;rounded=0;strokeColor=#FFFFFF;align=center;verticalAlign=middle;fontFamily=Helvetica;fontSize=12;fontColor=#FFFFFF;labelBackgroundColor=#000000;edgeStyle=orthogonalEdgeStyle;entryX=0.5;entryY=0;entryDx=0;entryDy=0;" edge="1" parent="1" target="4gb1G_93XU-V0cN32dXZ-53">
          <mxGeometry width="50" height="50" relative="1" as="geometry">
            <mxPoint x="433.49" y="219" as="sourcePoint" />
            <mxPoint x="483.49" y="169" as="targetPoint" />
            <Array as="points">
              <mxPoint x="477" y="219" />
            </Array>
          </mxGeometry>
        </mxCell>
        <mxCell id="4gb1G_93XU-V0cN32dXZ-57" value="" style="edgeStyle=orthogonalEdgeStyle;shape=connector;rounded=0;orthogonalLoop=1;jettySize=auto;html=1;strokeColor=#FFFFFF;align=center;verticalAlign=middle;fontFamily=Helvetica;fontSize=12;fontColor=#FFFFFF;labelBackgroundColor=#000000;endArrow=classic;" edge="1" parent="1" source="4gb1G_93XU-V0cN32dXZ-56" target="4gb1G_93XU-V0cN32dXZ-15">
          <mxGeometry relative="1" as="geometry">
            <Array as="points">
              <mxPoint x="593" y="366" />
              <mxPoint x="593" y="366" />
            </Array>
          </mxGeometry>
        </mxCell>
        <mxCell id="4gb1G_93XU-V0cN32dXZ-56" value="Gym Membership" style="rounded=0;whiteSpace=wrap;html=1;strokeColor=#FFFFFF;align=center;verticalAlign=middle;fontFamily=Helvetica;fontSize=12;fontColor=#FFFFFF;labelBackgroundColor=#000000;fillColor=none;" vertex="1" parent="1">
          <mxGeometry x="549" y="257" width="87" height="37" as="geometry" />
        </mxCell>
        <mxCell id="4gb1G_93XU-V0cN32dXZ-60" style="edgeStyle=orthogonalEdgeStyle;shape=connector;rounded=0;orthogonalLoop=1;jettySize=auto;html=1;exitX=0.5;exitY=1;exitDx=0;exitDy=0;entryX=0.5;entryY=0;entryDx=0;entryDy=0;strokeColor=#FFFFFF;align=center;verticalAlign=middle;fontFamily=Helvetica;fontSize=12;fontColor=#FFFFFF;labelBackgroundColor=#000000;endArrow=classic;" edge="1" parent="1" source="4gb1G_93XU-V0cN32dXZ-58" target="4gb1G_93XU-V0cN32dXZ-59">
          <mxGeometry relative="1" as="geometry" />
        </mxCell>
        <mxCell id="4gb1G_93XU-V0cN32dXZ-58" value="Apparels" style="rounded=0;whiteSpace=wrap;html=1;strokeColor=#FFFFFF;align=center;verticalAlign=middle;fontFamily=Helvetica;fontSize=12;fontColor=#FFFFFF;labelBackgroundColor=#000000;fillColor=none;" vertex="1" parent="1">
          <mxGeometry x="673" y="258" width="88" height="35" as="geometry" />
        </mxCell>
        <mxCell id="4gb1G_93XU-V0cN32dXZ-62" value="" style="edgeStyle=orthogonalEdgeStyle;shape=connector;rounded=0;orthogonalLoop=1;jettySize=auto;html=1;strokeColor=#FFFFFF;align=center;verticalAlign=middle;fontFamily=Helvetica;fontSize=12;fontColor=#FFFFFF;labelBackgroundColor=#000000;endArrow=classic;" edge="1" parent="1" source="4gb1G_93XU-V0cN32dXZ-59" target="4gb1G_93XU-V0cN32dXZ-61">
          <mxGeometry relative="1" as="geometry" />
        </mxCell>
        <mxCell id="4gb1G_93XU-V0cN32dXZ-59" value="Purchase" style="rounded=0;whiteSpace=wrap;html=1;strokeColor=#FFFFFF;align=center;verticalAlign=middle;fontFamily=Helvetica;fontSize=12;fontColor=#FFFFFF;labelBackgroundColor=#000000;fillColor=none;" vertex="1" parent="1">
          <mxGeometry x="667.5" y="321" width="99" height="41" as="geometry" />
        </mxCell>
        <mxCell id="4gb1G_93XU-V0cN32dXZ-61" value="Purchase Info Database" style="rounded=0;whiteSpace=wrap;html=1;fillColor=none;strokeColor=#FFFFFF;fontColor=#FFFFFF;labelBackgroundColor=#000000;" vertex="1" parent="1">
          <mxGeometry x="660.5" y="484" width="113" height="36.07" as="geometry" />
        </mxCell>
        <mxCell id="4gb1G_93XU-V0cN32dXZ-63" value="" style="endArrow=classic;html=1;rounded=0;strokeColor=#FFFFFF;align=center;verticalAlign=middle;fontFamily=Helvetica;fontSize=12;fontColor=#FFFFFF;labelBackgroundColor=#000000;edgeStyle=orthogonalEdgeStyle;entryX=0.5;entryY=0;entryDx=0;entryDy=0;" edge="1" parent="1" target="4gb1G_93XU-V0cN32dXZ-56">
          <mxGeometry width="50" height="50" relative="1" as="geometry">
            <mxPoint x="432" y="219" as="sourcePoint" />
            <mxPoint x="482" y="169" as="targetPoint" />
          </mxGeometry>
        </mxCell>
        <mxCell id="4gb1G_93XU-V0cN32dXZ-64" value="" style="endArrow=classic;html=1;rounded=0;strokeColor=#FFFFFF;align=center;verticalAlign=middle;fontFamily=Helvetica;fontSize=12;fontColor=#FFFFFF;labelBackgroundColor=#000000;edgeStyle=orthogonalEdgeStyle;entryX=0.5;entryY=0;entryDx=0;entryDy=0;" edge="1" parent="1" target="4gb1G_93XU-V0cN32dXZ-58">
          <mxGeometry width="50" height="50" relative="1" as="geometry">
            <mxPoint x="592" y="219" as="sourcePoint" />
            <mxPoint x="642" y="169" as="targetPoint" />
            <Array as="points">
              <mxPoint x="592" y="220" />
              <mxPoint x="717" y="220" />
            </Array>
          </mxGeometry>
        </mxCell>
      </root>
    </mxGraphModel>
  </diagram>
</mxfile>
